<?xml version="1.0" encoding="UTF-8"?>
<svg id="_レイヤー_2" data-name="レイヤー 2" xmlns="http://www.w3.org/2000/svg" viewBox="0 0 436 166">
  <defs>
    <style>
      .cls-1 {
        fill: #323232;
      }
    </style>
  </defs>
  <g id="txt">
    <g>
      <path class="cls-1" d="M1.2,58.34l-1.2-12.59c5.52,5.42,14.08,8.54,20.24,8.54s10.21-3.22,10.21-7.9c0-5.33-5.61-7.26-12.14-10.11C8.1,32.07,1.29,27.56,1.29,17.64S9.02,0,22.08,0c4.69,0,10.49,1.19,14.72,3.22l1.47,12.31c-5.52-3.86-11.41-5.7-16.56-5.7-6.07,0-9.48,3.31-9.48,7.17,0,5.42,6.26,7.44,12.88,10.2,8.56,3.58,16.19,8.09,16.19,18.56,0,11.76-9.38,18.38-21.25,18.38-6.72,0-13.06-1.84-18.86-5.79Z"/>
      <path class="cls-1" d="M71.67,10.75h-19.69V.92h50.32v9.83h-19.6v52.65h-11.04V10.75Z"/>
      <path class="cls-1" d="M135.06,39.23L112.61.92h12.51l15.64,27.56L156.59.92h11.87l-22.36,38.22v24.26h-11.04v-24.16Z"/>
      <path class="cls-1" d="M184.19.92h11.04v52.65h25.21l-1.84,9.83h-34.41V.92Z"/>
      <path class="cls-1" d="M239.02.92h36.16l1.84,9.83h-26.96v16.45h23.37v9.37h-23.37v17h27.88l-1.93,9.83h-36.98V.92Z"/>
      <path class="cls-1" d="M320.81,37.58V.92h11.04v36.57c0,11.58,6.44,17,15.18,17s15.27-5.51,15.27-16.91V.92h10.95v36.75c0,16.72-11.5,26.55-26.22,26.55s-26.22-9.83-26.22-26.64Z"/>
      <path class="cls-1" d="M393.77.92h20.06c14.26,0,22.17,9.83,22.17,20.76s-7.91,20.76-22.17,20.76h-9.02v20.95h-11.04V.92ZM412.63,32.71c7.82,0,12.05-4.69,12.05-11.12s-4.23-10.84-12.05-10.84h-7.82v21.96h7.82Z"/>
      <path class="cls-1" d="M3.59,102.79h20.06c14.26,0,22.17,9.83,22.17,20.76s-7.91,20.76-22.17,20.76h-9.02v20.95H3.59v-62.48ZM22.45,134.58c7.82,0,12.05-4.69,12.05-11.12s-4.23-10.84-12.05-10.84h-7.82v21.96h7.82Z"/>
      <path class="cls-1" d="M75.63,102.33h4.51l27.88,62.94h-11.5l-6.07-14.7h-25.02l-6.07,14.7h-11.5l27.78-62.94ZM86.57,141.28l-8.56-20.67h-.18l-8.56,20.67h17.3Z"/>
      <path class="cls-1" d="M132.3,123.64h-.18l.09,41.62h-10.86v-62.94h4.78l37.81,41.16h.18l-.18-40.7h10.86v62.94h-4.23l-38.27-42.08Z"/>
      <path class="cls-1" d="M209.86,112.62h-19.69v-9.83h50.32v9.83h-19.6v52.65h-11.04v-52.65Z"/>
      <path class="cls-1" d="M254.48,160.21l-1.2-12.59c5.52,5.42,14.08,8.54,20.24,8.54s10.21-3.22,10.21-7.9c0-5.33-5.61-7.26-12.14-10.11-10.21-4.23-17.02-8.73-17.02-18.65s7.73-17.64,20.79-17.64c4.69,0,10.49,1.19,14.72,3.22l1.47,12.31c-5.52-3.86-11.41-5.7-16.56-5.7-6.07,0-9.48,3.31-9.48,7.17,0,5.42,6.26,7.44,12.88,10.2,8.56,3.58,16.19,8.09,16.19,18.56,0,11.76-9.38,18.38-21.25,18.38-6.72,0-13.06-1.84-18.86-5.79Z"/>
    </g>
  </g>
</svg>